<svg width="224" height="224" viewBox="0 0 224 224" fill="none" xmlns="http://www.w3.org/2000/svg">
<g filter="url(#filter0_d_0_66)">
<g clip-path="url(#clip0_0_66)">
<path d="M48 60.6336C48 44.8197 60.8197 32 76.6336 32H147.366C163.18 32 176 44.8197 176 60.6336V131.366C176 147.18 163.18 160 147.366 160H76.6336C60.8197 160 48 147.18 48 131.366V60.6336Z" fill="url(#paint0_radial_0_66)"/>
<g filter="url(#filter1_d_0_66)">
<path d="M108.25 67.25C108.25 65.1789 109.929 63.5 112 63.5C114.071 63.5 115.75 65.1789 115.75 67.25V124.75C115.75 126.821 114.071 128.5 112 128.5C109.929 128.5 108.25 126.821 108.25 124.75V67.25Z" fill="white"/>
</g>
</g>
</g>
<defs>
<filter id="filter0_d_0_66" x="0" y="0" width="224" height="224" filterUnits="userSpaceOnUse" color-interpolation-filters="sRGB">
<feFlood flood-opacity="0" result="BackgroundImageFix"/>
<feColorMatrix in="SourceAlpha" type="matrix" values="0 0 0 0 0 0 0 0 0 0 0 0 0 0 0 0 0 0 127 0" result="hardAlpha"/>
<feOffset dy="16"/>
<feGaussianBlur stdDeviation="24"/>
<feComposite in2="hardAlpha" operator="out"/>
<feColorMatrix type="matrix" values="0 0 0 0 0 0 0 0 0 0 0 0 0 0 0 0 0 0 0.45 0"/>
<feBlend mode="normal" in2="BackgroundImageFix" result="effect1_dropShadow_0_66"/>
<feBlend mode="normal" in="SourceGraphic" in2="effect1_dropShadow_0_66" result="shape"/>
</filter>
<filter id="filter1_d_0_66" x="76.25" y="39.5" width="71.5" height="129" filterUnits="userSpaceOnUse" color-interpolation-filters="sRGB">
<feFlood flood-opacity="0" result="BackgroundImageFix"/>
<feColorMatrix in="SourceAlpha" type="matrix" values="0 0 0 0 0 0 0 0 0 0 0 0 0 0 0 0 0 0 127 0" result="hardAlpha"/>
<feOffset dy="8"/>
<feGaussianBlur stdDeviation="16"/>
<feComposite in2="hardAlpha" operator="out"/>
<feColorMatrix type="matrix" values="0 0 0 0 0.572549 0 0 0 0 0.25098 0 0 0 0 0.054902 0 0 0 0.5 0"/>
<feBlend mode="normal" in2="BackgroundImageFix" result="effect1_dropShadow_0_66"/>
<feBlend mode="normal" in="SourceGraphic" in2="effect1_dropShadow_0_66" result="shape"/>
</filter>
<radialGradient id="paint0_radial_0_66" cx="0" cy="0" r="1" gradientUnits="userSpaceOnUse" gradientTransform="translate(112 80.64) rotate(-90) scale(184.32)">
<stop stop-color="#FCD34D"/>
<stop offset="0.45" stop-color="#F59E0B"/>
<stop offset="1" stop-color="#B45309"/>
</radialGradient>
<clipPath id="clip0_0_66">
<path d="M48 60.6336C48 44.8197 60.8197 32 76.6336 32H147.366C163.18 32 176 44.8197 176 60.6336V131.366C176 147.18 163.18 160 147.366 160H76.6336C60.8197 160 48 147.18 48 131.366V60.6336Z" fill="white"/>
</clipPath>
</defs>
</svg>
