<svg width="608" height="608" viewBox="0 0 608 608" fill="none" xmlns="http://www.w3.org/2000/svg">
<g filter="url(#filter0_d_0_41)">
<path d="M48 146.534C48 83.2788 99.2788 32 162.534 32H445.466C508.721 32 560 83.2788 560 146.534V429.466C560 492.721 508.721 544 445.466 544H162.534C99.2788 544 48 492.721 48 429.466V146.534Z" fill="url(#paint0_radial_0_41)"/>
<g filter="url(#filter1_d_0_41)">
<path d="M289 173C289 164.716 295.716 158 304 158C312.284 158 319 164.716 319 173V403C319 411.284 312.284 418 304 418C295.716 418 289 411.284 289 403V173Z" fill="white"/>
</g>
</g>
<defs>
<filter id="filter0_d_0_41" x="0" y="0" width="608" height="608" filterUnits="userSpaceOnUse" color-interpolation-filters="sRGB">
<feFlood flood-opacity="0" result="BackgroundImageFix"/>
<feColorMatrix in="SourceAlpha" type="matrix" values="0 0 0 0 0 0 0 0 0 0 0 0 0 0 0 0 0 0 127 0" result="hardAlpha"/>
<feOffset dy="16"/>
<feGaussianBlur stdDeviation="24"/>
<feComposite in2="hardAlpha" operator="out"/>
<feColorMatrix type="matrix" values="0 0 0 0 0 0 0 0 0 0 0 0 0 0 0 0 0 0 0.45 0"/>
<feBlend mode="normal" in2="BackgroundImageFix" result="effect1_dropShadow_0_41"/>
<feBlend mode="normal" in="SourceGraphic" in2="effect1_dropShadow_0_41" result="shape"/>
</filter>
<filter id="filter1_d_0_41" x="257" y="134" width="94" height="324" filterUnits="userSpaceOnUse" color-interpolation-filters="sRGB">
<feFlood flood-opacity="0" result="BackgroundImageFix"/>
<feColorMatrix in="SourceAlpha" type="matrix" values="0 0 0 0 0 0 0 0 0 0 0 0 0 0 0 0 0 0 127 0" result="hardAlpha"/>
<feOffset dy="8"/>
<feGaussianBlur stdDeviation="16"/>
<feComposite in2="hardAlpha" operator="out"/>
<feColorMatrix type="matrix" values="0 0 0 0 0.572549 0 0 0 0 0.25098 0 0 0 0 0.054902 0 0 0 0.5 0"/>
<feBlend mode="normal" in2="BackgroundImageFix" result="effect1_dropShadow_0_41"/>
<feBlend mode="normal" in="SourceGraphic" in2="effect1_dropShadow_0_41" result="shape"/>
</filter>
<radialGradient id="paint0_radial_0_41" cx="0" cy="0" r="1" gradientUnits="userSpaceOnUse" gradientTransform="translate(304 226.56) rotate(-90) scale(737.28)">
<stop stop-color="#FCD34D"/>
<stop offset="0.45" stop-color="#F59E0B"/>
<stop offset="1" stop-color="#B45309"/>
</radialGradient>
</defs>
</svg>
